# AST/ASF file generated using VICON BodyLanguage
# -----------------------------------------------
:version 1.10
:name VICON
:units
  mass 1.0
  length 0.45
  angle deg
:documentation
   .ast/.asf automatically generated from VICON data using
   VICON BodyBuilder and BodyLanguage model FoxedUp or BRILLIANT.MOD
:root
   order TX TY TZ RX RY RZ
   axis XYZ
   position 0 0 0  
   orientation 0 0 0 
:bonedata
  begin
     id 1 
     name lhipjoint
     direction 0.623529 -0.717805 0.309788 
     length 2.23224 
     axis 0 0 0  XYZ
  end
  begin
     id 2 
     name lfemur
     direction 0.34202 -0.939693 0  
     length 7.11402  
     axis 0 0 20  XYZ
    dof rx ry rz
    limits (-160.0 20.0)
           (-70.0 70.0)
           (-60.0 70.0)
  end
  begin
     id 3 
     name ltibia
     direction 0.34202 -0.939693 0   
     length 6.78496   
     axis 0 0 20   XYZ
    dof rx
    limits (-10.0 170.0)
  end
  begin
     id 4 
     name lfoot
     direction 0.125078 -0.343648 0.930732   
     length 1.84054   
     axis -90 7.62852e-016 20   XYZ
    dof rx rz
    limits (-45.0 90.0)
           (-70.0 20.0)
  end
  begin
     id 5 
     name ltoes
     direction 1.53565e-011 -4.21893e-011 1   
     length 0.916474   
     axis -90 7.62852e-016 20   XYZ
    dof rx
    limits (-90.0 20.0)
  end
  begin
     id 6 
     name rhipjoint
     direction -0.564688 -0.757748 0.327026   
     length 2.11457  
     axis 0 0 0  XYZ 
  end
  begin
     id 7 
     name rfemur
     direction -0.34202 -0.939693 0   
     length 7.14609   
     axis 0 0 -20   XYZ
    dof rx ry rz
    limits (-160.0 20.0)
           (-70.0 70.0)
           (-70.0 60.0)
  end
  begin
     id 8 
     name rtibia
     direction -0.34202 -0.939693 0   
     length 6.78101   
     axis 0 0 -20   XYZ
    dof rx
    limits (-10.0 170.0)
 end
 begin
     id 9 
     name rfoot
     direction -0.0992671 -0.272734 0.956955   
     length 1.96168  
     axis -90 -7.62852e-016 -20   XYZ
    dof rx rz
    limits (-45.0 90.0)
           (-20.0 70.0)
  end
  begin
     id 10 
     name rtoes
     direction -1.5356e-011 -4.21891e-011 1   
     length 0.982933   
     axis -90 -7.62852e-016 -20   XYZ
    dof rx
    limits (-90.0 20.0)
  end
  begin
     id 11 
     name lowerback
     direction -0.00596953 0.998668 0.0512524   
     length 1.87557   
     axis 0 0 0   XYZ
    dof rx ry rz
    limits (-20.0 45.0)
           (-30.0 30.0)
           (-30.0 30.0)
  end
  begin
     id 12 
     name upperback
     direction 0.00584879 0.999652 0.0257308   
     length 1.87883   
     axis 0 0 0   XYZ
    dof rx ry rz
    limits (-20.0 45.0)
           (-30.0 30.0)
           (-30.0 30.0)
  end
  begin
     id 13 
     name thorax
     direction 0.010104 0.999947 0.00178881   
     length 1.87779   
     axis 0 0 0   XYZ
    dof rx ry rz
    limits (-20.0 45.0)
           (-30.0 30.0)
           (-30.0 30.0)
  end
  begin
     id 14 
     name lowerneck
     direction 0.0120771 0.995934 -0.0892773   
     length 1.40897   
     axis 0 0 0   XYZ
    dof rx ry rz
    limits (-20.0 45.0)
           (-30.0 30.0)
           (-30.0 30.0)
  end
  begin
     id 15 
     name upperneck
     direction -0.030568 0.999465 -0.0116366   
     length 1.38661   
     axis 0 0 0   XYZ
    dof rx ry rz
    limits (-20.0 45.0)
           (-30.0 30.0)
           (-30.0 30.0)
  end
  begin
     id 16
     name head
     direction -0.0170715 0.999854 -0.00104426  
     length 1.47052  
     axis 0 0 0   XYZ
    dof rx ry rz
    limits (-20.0 45.0)
           (-30.0 30.0)
           (-30.0 30.0)
  end
  begin
     id 17 
     name lclavicle
     direction 0.977763 0.206143 0.038532  
     length 3.02424  
     axis 0 0 0   XYZ
    dof ry rz
    limits (-20.0 10.0)
           (0.0 20.0)
  end
  begin
     id 18 
     name lhumerus
     direction 1 -4.48965e-011 -2.62654e-027   
     length 4.68382   
     axis 180 -30 -90   XYZ
    dof rx ry rz
    limits (-60.0 90.0)
           (-90.0 90.0)
           (-90.0 90.0)
  end
  begin
     id 19
     name lradius
     direction 1 -4.48973e-011 -1.54954e-027   
     length 2.98124   
     axis 180 -30 -90   XYZ
    dof rx
    limits (-10.0 170.0)
  end
  begin
     id 20
     name lwrist
     direction 1 -4.48959e-011 7.20928e-028   
     length 1.49062   
     axis -5.52449e-016 90 90   XYZ
    dof ry
    limits (-180.0 0.0)
 end
  begin
     id 21 
     name lhand
     direction 1 -4.48971e-011 1.44186e-027   
     length 0.707595   
     axis -9.20027e-016 90 90   XYZ
    dof rx rz
    limits (-90.0 90.0)
           (-45.0 45.0)
  end
  begin
     id 22 
     name lfingers
     direction 1 -4.48985e-011 2.88371e-027   
     length 0.570481   
     axis -1.84005e-015 90 90   XYZ
    dof rx
    limits (0.0 90.0)
  end
  begin
     id 23
     name lthumb
     direction 0.707107 -6.34929e-011 0.707107   
     length 0.819101   
     axis -90 45 2.85299e-015   XYZ
    dof rx rz
    limits (-45.0 45.0)
           (-45.0 45.0)
  end
  begin
     id 24 
     name rclavicle
     direction -0.958661 0.284411 -0.00895327   
     length 3.11921  
     axis 0 0 0   XYZ 
    dof ry rz
    limits (-10.0 20.0)
           (-20.0 0.0)
  end
  begin
     id 25 
     name rhumerus
     direction -1 -4.48963e-011 -4.22193e-027  
     length 4.75876   
     axis 180 30 90   XYZ
    dof rx ry rz
    limits (-90.0 60.0)
           (-90.0 90.0)
           (-90.0 90.0)
  end
  begin
     id 26 
     name rradius
     direction -1 -4.48968e-011 -1.07616e-027   
     length 2.93293   
     axis 180 30 90   XYZ
    dof rx
    limits (-10.0 170.0)
  end
  begin
     id 27 
     name rwrist
     direction -1 -4.48965e-011 7.20928e-028   
     length 1.46647   
     axis -5.52449e-016 -90 -90   XYZ
    dof ry
    limits (-180.0 0.0)
  end
  begin
     id 28
     name rhand
     direction -1 -4.48971e-011 1.44186e-027   
     length 0.831748   
     axis -9.20027e-016 -90 -90   XYZ
    dof rx rz
    limits (-90.0 90.0)
           (-45.0 45.0)
  end
  begin
     id 29
     name rfingers
     direction -1 -4.48961e-011 2.88371e-027   
     length 0.670577   
     axis -1.84005e-015 -90 -90   XYZ
    dof rx
    limits (0.0 90.0)
  end
  begin
     id 30
     name rthumb
     direction -0.707107 -6.34929e-011 0.707107   
     length 0.962818   
     axis -90 -45 -2.85299e-015   XYZ
    dof rx rz
    limits (-45.0 45.0)
           (-45.0 45.0)
  end
:hierarchy
  begin
    root lhipjoint rhipjoint lowerback
    lhipjoint lfemur
    lfemur ltibia
    ltibia lfoot
    lfoot ltoes
    rhipjoint rfemur
    rfemur rtibia
    rtibia rfoot
    rfoot rtoes
    lowerback upperback
    upperback thorax
    thorax lowerneck lclavicle rclavicle
    lowerneck upperneck
    upperneck head
    lclavicle lhumerus
    lhumerus lradius
    lradius lwrist
    lwrist lhand lthumb
    lhand lfingers
    rclavicle rhumerus
    rhumerus rradius
    rradius rwrist
    rwrist rhand rthumb
    rhand rfingers
  end

#!OML:ASF E:\id_vita\Project 1\Capture day 1\Session 1\Female.ASF
:FULLY-SPECIFIED
:DEGREES
638
root 26.0866 12.3999 -0.889896 110.199 -89.1827 -413.777
lowerback 0.370937 -3.04718 -2.0417
upperback 1.34199 -4.0639 1.40961
thorax 1.41359 -2.06279 2.54367
lowerneck -15.1304 3.44054 -9.35302
upperneck 10.6464 4.94151 11.7007
head 5.12286 2.88201 5.66006
rclavicle -7.95139e-016 -9.14409e-014
rhumerus 12.5171 39.2013 -70.9766
rradius 59.2998
rwrist 15.4538
rhand -45.3885 629.57
rfingers 7.12502
rthumb -18.1574 61.2577
lclavicle -7.95139e-016 -9.14409e-014
lhumerus 11.0227 -29.0508 57.1386
lradius 61.9235
lwrist -15.1724
lhand -59.4883 79.8022
lfingers 7.12502
lthumb -31.6646 -827.075
rfemur -90.6378 8.57629 25.7317
rtibia 101.986
rfoot -27.4062 -9.46815
rtoes -21.2808
lfemur -6.18237 -8.49746 -22.1713
ltibia 13.148
lfoot 21.3606 -8.16695
ltoes 12.0264
639
root 26.0104 12.4033 -0.894831 100.362 -89.2723 -404.008
lowerback 0.353632 -3.05601 -2.17674
upperback 1.36365 -4.0749 1.39372
thorax 1.45467 -2.07059 2.60054
lowerneck -14.9056 3.39225 -9.41016
upperneck 10.5135 4.86374 11.8144
head 5.04864 2.84411 5.68889
rclavicle 1.06549e-013 -7.95139e-015
rhumerus 12.3922 39.2857 -70.9029
rradius 59.3411
rwrist 15.0287
rhand -45.4559 628.943
rfingers 7.12502
rthumb -18.2223 61.8904
lclavicle 1.06549e-013 -7.95139e-015
lhumerus 11.114 -29.2457 57.1762
lradius 61.7722
lwrist -15.0132
lhand -59.5108 79.6585
lfingers 7.12502
lthumb -31.686 -826.927
rfemur -90.1279 8.40798 25.6958
rtibia 101.917
rfoot -27.339 -9.45153
rtoes -21.4963
lfemur -6.01103 -8.48899 -22.2525
ltibia 12.9804
lfoot 22.7769 -8.02255
ltoes 14.2099
640
root 25.9318 12.4132 -0.900074 92.6173 -89.132 -396.303
lowerback 0.387055 -3.01828 -2.14516
upperback 1.41291 -4.02621 1.45176
thorax 1.48555 -2.04743 2.64357
lowerneck -15.0107 3.3007 -9.46652
upperneck 10.519 4.74101 11.9466
head 5.07715 2.79367 5.73727
rclavicle -1.19271e-014 -2.70347e-014
rhumerus 12.7326 39.3321 -70.2839
rradius 59.3221
rwrist 14.0985
rhand -45.4264 628.421
rfingers 7.12502
rthumb -18.1939 62.4099
lclavicle -1.19271e-014 -2.70347e-014
lhumerus 11.3372 -29.4949 57.1733
lradius 61.5761
lwrist -14.9007
lhand -59.761 79.9079
lfingers 7.12502
lthumb -31.9243 -827.129
rfemur -89.5496 8.32514 25.8677
rtibia 101.752
rfoot -27.2979 -9.53307
rtoes -22.0864
lfemur -6.06093 -8.3481 -22.1193
ltibia 13.1542
lfoot 23.8401 -8.10831
ltoes 14.1652
641
root 25.8479 12.4238 -0.906235 90.2287 -89.0039 -393.896
lowerback 0.408883 -3.08551 -2.06203
upperback 1.3906 -4.11639 1.48751
thorax 1.45279 -2.09093 2.63445
lowerneck -15.2346 3.34051 -9.44584
upperneck 10.727 4.79629 11.9241
head 5.17335 2.82495 5.7451
rclavicle 2.38542e-014 -3.73715e-014
rhumerus 11.9051 39.4822 -71.2566
rradius 58.8476
rwrist 15.462
rhand -45.3058 628.97
rfingers 7.12502
rthumb -18.0779 61.8506
lclavicle 2.38542e-014 -3.73715e-014
lhumerus 11.0707 -29.4043 57.2998
lradius 61.4754
lwrist -14.9992
lhand -59.9006 80.4313
lfingers 7.12502
lthumb -32.0572 -827.626
rfemur -89.0496 8.2592 26.0378
rtibia 101.525
rfoot -27.3484 -9.4456
rtoes -22.6394
lfemur -6.2597 -8.01925 -22.0384
ltibia 13.3784
lfoot 24.7655 -8.41249
ltoes 12.5587
642
root 25.7627 12.4318 -0.910837 88.9121 -88.9287 -392.49
lowerback 0.2721 -3.07319 -2.08332
upperback 1.39927 -4.09819 1.50708
thorax 1.5402 -2.08342 2.65826
lowerneck -15.474 3.28998 -9.28657
upperneck 10.9158 4.70745 11.8531
head 5.28807 2.78824 5.70491
rclavicle 2.78299e-014 2.38542e-015
rhumerus 12.5958 39.9396 -70.4627
rradius 58.5044
rwrist 13.9239
rhand -44.7302 449.915
rfingers 7.12502
rthumb -17.524 60.6845
lclavicle 2.78299e-014 2.38542e-015
lhumerus 11.126 -29.5108 57.298
lradius 61.4126
lwrist -14.9138
lhand -59.7983 80.092
lfingers 7.12502
lthumb -31.9598 -827.306
rfemur -88.6364 8.14739 26.1607
rtibia 101.291
rfoot -27.3855 -9.16168
rtoes -22.595
lfemur -6.52233 -7.73314 -21.9932
ltibia 13.5851
lfoot 25.8669 -8.33367
ltoes 11.6549
643
root 25.6842 12.4378 -0.91233 83.4165 -88.8211 -386.985
lowerback 0.194538 -3.1194 -1.98597
upperback 1.44238 -4.15914 1.50573
thorax 1.62463 -2.11393 2.59539
lowerneck -15.5129 3.29693 -9.24282
upperneck 10.9116 4.71076 11.8477
head 5.29424 2.79211 5.69736
rclavicle 3.73715e-014 -5.64548e-014
rhumerus 12.178 39.6461 -71.0739
rradius 58.3576
rwrist 15.2099
rhand -45.1201 629.12
rfingers 7.12502
rthumb -17.8992 61.6838
lclavicle 3.73715e-014 -5.64548e-014
lhumerus 11.1255 -29.5467 57.3375
lradius 61.333
lwrist -14.8766
lhand -59.6049 80.6549
lfingers 7.12502
lthumb -31.7756 -827.906
rfemur -88.1609 7.93213 26.3154
rtibia 101.083
rfoot -27.4389 -8.75647
rtoes -21.8143
lfemur -6.71419 -7.61498 -21.8817
ltibia 13.9789
lfoot 26.6311 -8.59786
ltoes 10.3724
644
root 25.6022 12.4537 -0.916311 77.6372 -88.7275 -381.286
lowerback 0.206328 -3.13103 -2.03262
upperback 1.5148 -4.17537 1.53962
thorax 1.69949 -2.12477 2.65389
lowerneck -15.3199 3.30712 -9.19958
upperneck 10.7212 4.72176 11.7923
head 5.20453 2.791 5.65954
rclavicle 3.57812e-014 -3.97569e-015
rhumerus 12.1073 39.5087 -71.1239
rradius 58.3273
rwrist 15.145
rhand -45.209 628.413
rfingers 7.12502
rthumb -17.9848 62.3981
lclavicle 3.57812e-014 -3.97569e-015
lhumerus 11.2017 -29.5129 57.54
lradius 61.0537
lwrist -15.0732
lhand -59.4811 82.2453
lfingers 7.12502
lthumb -31.6577 -829.519
rfemur -87.5505 7.74792 26.4118
rtibia 100.838
rfoot -27.5313 -8.31895
rtoes -21.1352
lfemur -6.9506 -7.51814 -21.8041
ltibia 14.4141
lfoot 27.9007 -8.43656
ltoes 10.9324
